<svg xmlns="http://www.w3.org/2000/svg" viewBox="0 0 32 32" width="32" height="32">
  <defs>
    <linearGradient id="bulbGrad" x1="0%" y1="0%" x2="100%" y2="100%">
      <stop offset="0%" style="stop-color:#FFD700;stop-opacity:1" />
      <stop offset="100%" style="stop-color:#FFA500;stop-opacity:1" />
    </linearGradient>
  </defs>
  
  <!-- Light bulb body -->
  <path d="M16 4c-4.4 0-8 3.6-8 8 0 2.8 1.4 5.3 3.5 6.8V22c0 1.1.9 2 2 2h5c1.1 0 2-.9 2-2v-3.2c2.1-1.5 3.5-4 3.5-6.8 0-4.4-3.6-8-8-8z" fill="url(#bulbGrad)" stroke="#E6A000" stroke-width="0.5"/>
  
  <!-- Base/screw threads -->
  <rect x="12" y="22" width="8" height="2" fill="#B8860B" rx="0.5"/>
  <rect x="12" y="24" width="8" height="2" fill="#A0750A" rx="0.5"/>
  <rect x="13" y="26" width="6" height="2" fill="#8B6914" rx="0.5"/>
  
  <!-- Highlight for shine -->
  <ellipse cx="13" cy="9" rx="1.5" ry="2.5" fill="#FFF" opacity="0.6"/>
  
  <!-- Filament -->
  <path d="M13 10 Q16 12 19 10 Q16 14 13 12 Q16 16 19 14" fill="none" stroke="#E6A000" stroke-width="0.8" opacity="0.7"/>
</svg>